<svg width="1920" height="1200" viewBox="0 0 1920 1200" fill="none" xmlns="http://www.w3.org/2000/svg">
  <defs>
    <linearGradient id="bg" x1="1920" y1="0" x2="0" y2="1200" gradientUnits="userSpaceOnUse">
      <stop stop-color="#1A1D23"/>
      <stop offset="0.58" stop-color="#0F1116"/>
      <stop offset="1" stop-color="#0A0C10"/>
    </linearGradient>
    <linearGradient id="floor" x1="960" y1="720" x2="960" y2="1200" gradientUnits="userSpaceOnUse">
      <stop stop-color="#11141B" stop-opacity="0"/>
      <stop offset="1" stop-color="#080A0F"/>
    </linearGradient>
    <radialGradient id="glowA" cx="0" cy="0" r="1" gradientUnits="userSpaceOnUse" gradientTransform="translate(380 260) rotate(20) scale(460 260)">
      <stop stop-color="#5B9DFF" stop-opacity="0.24"/>
      <stop offset="1" stop-color="#5B9DFF" stop-opacity="0"/>
    </radialGradient>
    <radialGradient id="glowB" cx="0" cy="0" r="1" gradientUnits="userSpaceOnUse" gradientTransform="translate(1480 340) rotate(-12) scale(520 290)">
      <stop stop-color="#7A6DFF" stop-opacity="0.2"/>
      <stop offset="1" stop-color="#7A6DFF" stop-opacity="0"/>
    </radialGradient>
    <filter id="soft" x="-40%" y="-40%" width="180%" height="180%" color-interpolation-filters="sRGB">
      <feGaussianBlur stdDeviation="16"/>
    </filter>
  </defs>

  <rect width="1920" height="1200" fill="url(#bg)"/>
  <ellipse cx="390" cy="280" rx="470" ry="270" fill="url(#glowA)"/>
  <ellipse cx="1470" cy="360" rx="560" ry="300" fill="url(#glowB)"/>

  <g opacity="0.24" filter="url(#soft)">
    <rect x="140" y="190" width="1640" height="4" fill="#9EAAD0"/>
    <rect x="140" y="354" width="1640" height="4" fill="#9EAAD0"/>
    <rect x="140" y="518" width="1640" height="4" fill="#9EAAD0"/>
  </g>

  <g opacity="0.34">
    <rect x="220" y="410" width="26" height="390" rx="13" fill="#232833"/>
    <rect x="322" y="370" width="26" height="430" rx="13" fill="#232833"/>
    <rect x="246" y="510" width="76" height="18" rx="9" fill="#323A49"/>
    <rect x="246" y="620" width="76" height="18" rx="9" fill="#323A49"/>
  </g>

  <g opacity="0.38">
    <rect x="1490" y="430" width="34" height="350" rx="17" fill="#232833"/>
    <rect x="1412" y="470" width="24" height="270" rx="12" fill="#232833"/>
    <rect x="1524" y="500" width="24" height="220" rx="12" fill="#232833"/>
    <rect x="1436" y="598" width="54" height="16" rx="8" fill="#364054"/>
  </g>

  <g opacity="0.46">
    <rect x="720" y="420" width="480" height="16" rx="8" fill="#E8EDF8"/>
    <rect x="648" y="392" width="72" height="72" rx="16" fill="#D5DEEF"/>
    <rect x="1200" y="392" width="72" height="72" rx="16" fill="#D5DEEF"/>
    <rect x="598" y="404" width="42" height="48" rx="14" fill="#BFCBE3"/>
    <rect x="1272" y="404" width="42" height="48" rx="14" fill="#BFCBE3"/>
  </g>

  <g opacity="0.18">
    <path d="M300 840C300 796.922 334.922 762 378 762H1542C1585.08 762 1620 796.922 1620 840V870H300V840Z" fill="#1B2029"/>
    <rect x="280" y="868" width="1360" height="218" rx="26" fill="#11151D"/>
  </g>

  <rect y="700" width="1920" height="500" fill="url(#floor)"/>
</svg>
